<?xml version="1.0" encoding="utf-8"?>
<!-- Generator: Adobe Illustrator 21.0.2, SVG Export Plug-In . SVG Version: 6.00 Build 0)  -->
<svg version="1.1" xmlns="http://www.w3.org/2000/svg" xmlns:xlink="http://www.w3.org/1999/xlink" x="0px" y="0px"
	 viewBox="0 0 24 24" style="enable-background:new 0 0 24 24;" xml:space="preserve">
<style type="text/css">
	.st0{display:none;}
	.st1{display:inline;}
</style>
<g id="Layer_1">
	<path d="M6,6l0,1h16v11H2V7h2l0-1H6 M6,5H4C3.7,5,3.5,5.1,3.3,5.3C3.1,5.5,3,5.7,3,6L2,6C1.4,6,1,6.4,1,7v11c0,0.6,0.4,1,1,1h20
		c0.6,0,1-0.4,1-1V7c0-0.6-0.4-1-1-1H7v0C7,5.4,6.6,5,6,5L6,5z"/>
	<path d="M16.5,7c3,0,5.5,2.5,5.5,5.5S19.5,18,16.5,18S11,15.5,11,12.5S13.5,7,16.5,7 M16.5,6C12.9,6,10,8.9,10,12.5
		s2.9,6.5,6.5,6.5s6.5-2.9,6.5-6.5S20.1,6,16.5,6L16.5,6z"/>
	<circle cx="16.5" cy="12.5" r="3.5"/>
	<path d="M6,10H4c-0.6,0-1-0.4-1-1s0.4-1,1-1h2c0.6,0,1,0.4,1,1S6.6,10,6,10z"/>
</g>
<g id="Layer_2" class="st0">
	<path class="st1" d="M18,2v20H7V2H18 M18,1H7C6.4,1,6,1.4,6,2v20c0,0.6,0.4,1,1,1h11c0.6,0,1-0.4,1-1V2C19,1.4,18.6,1,18,1L18,1z"
		/>
	<path class="st1" d="M12.5,5C13.3,5,14,5.7,14,6.5S13.3,8,12.5,8S11,7.3,11,6.5S11.7,5,12.5,5 M12.5,4C11.1,4,10,5.1,10,6.5
		S11.1,9,12.5,9S15,7.9,15,6.5S13.9,4,12.5,4L12.5,4z"/>
	<g class="st1">
		<circle cx="12.5" cy="6.5" r="0.5"/>
	</g>
	<path class="st1" d="M13,12h-1c-0.6,0-1-0.4-1-1s0.4-1,1-1h1c0.6,0,1,0.4,1,1S13.6,12,13,12z"/>
</g>
</svg>
