<?xml version="1.0" encoding="utf-8"?>
<!-- Generator: Adobe Illustrator 21.0.2, SVG Export Plug-In . SVG Version: 6.00 Build 0)  -->
<svg version="1.1" xmlns="http://www.w3.org/2000/svg" xmlns:xlink="http://www.w3.org/1999/xlink" x="0px" y="0px"
	 viewBox="0 0 24 24" style="enable-background:new 0 0 24 24;" xml:space="preserve">
<g id="Layer_1">
	<path d="M22,7v11H2V7H22z M2,6C1.4,6,1,6.4,1,7v11c0,0.6,0.4,1,1,1h20c0.6,0,1-0.4,1-1V7c0-0.6-0.4-1-1-1H2z"/>
	<path d="M16.5,7c3,0,5.5,2.5,5.5,5.5S19.5,18,16.5,18S11,15.5,11,12.5S13.5,7,16.5,7 M16.5,6C12.9,6,10,8.9,10,12.5
		s2.9,6.5,6.5,6.5s6.5-2.9,6.5-6.5S20.1,6,16.5,6L16.5,6z"/>
	<circle cx="16.5" cy="12.5" r="3.5"/>
	<path d="M6,10H4c-0.6,0-1-0.4-1-1s0.4-1,1-1h2c0.6,0,1,0.4,1,1S6.6,10,6,10z"/>
</g>
<g id="Layer_2">
	<path d="M2,7l20,0l0,11L2,18L2,7 M1,7l0,11c0,0.6,0.4,1,1,1l20,0c0.6,0,1-0.4,1-1l0-11c0-0.6-0.4-1-1-1L2,6C1.4,6,1,6.5,1,7L1,7z"
		/>
	<path d="M5,12.5C5,11.7,5.7,11,6.5,11S8,11.7,8,12.5C8,13.3,7.3,14,6.5,14S5,13.3,5,12.5 M4,12.5C4,13.9,5.1,15,6.5,15
		S9,13.9,9,12.5C9,11.1,7.9,10,6.5,10S4,11.1,4,12.5L4,12.5z"/>
	<g>
		<ellipse transform="matrix(1 -1.246882e-03 1.246882e-03 1 -1.558952e-02 8.114460e-03)" cx="6.5" cy="12.5" rx="0.5" ry="0.5"/>
	</g>
	<path d="M12,12l0,1c0,0.6-0.4,1-1,1s-1-0.4-1-1l0-1c0-0.6,0.4-1,1-1C11.6,11,12,11.4,12,12z"/>
</g>
</svg>
